Bruce Springsteen & The E Street Band London Calling Live In Hyde Park Avc 1080p Lpcm 5.1 M2ts File


London Calling
Badlands
Night
She's The One
Outlaw Pete
Out In The Street
Working on A Dream
Seeds
Johnny 99
1O. Youngstown
Good Lovin'
Bobby Jean
Trapped
No Surrender
Waiting On A Sunny Day
Promised Land
Racing In The Street
Radio Nowhere
Lonesome Day
2O. The Rising
Born To Run
Rosalita (Come Out Tonight)
Hard Times (Come Again No More)
Jungleland
American Land
Glory Days
Dancing In The Dark


General 
ID : 1 (0x1) 
Bruce Springsteen & The E Street Band London Calling Live In Hyde ParkBDMVSTREAMBruce Springsteen & The E Street Band London Calling Live In Hyde Park Avc 1080p Lpcm 5.1.m2ts 
Format : BDAV 
Format/Info : Blu-ray Video 
File size : 15.2 GiB 
Duration : 2h 52mn 
Overall bit rate mode : Variable 
Overall bit rate : 12.6 Mbps 
Maximum Overall bit rate : 35.5 Mbps 

Video 
ID : 4113 (0x1011) 
Menu ID : 1 (0x1) 
Format : AVC 
Format/Info : Advanced Video Codec 
Format profile : High@L4.0 
Format settings, CABAC : Yes 
Format settings, ReFrames : 3 frames 
Codec ID : 27 
Duration : 2h 52mn 
Bit rate mode : Variable 
Bit rate : 7 511 Kbps 
Maximum bit rate : 25.0 Mbps 
Width : 1 920 pixels 
Height : 1 080 pixels 
Display aspect ratio : 16:9 
Frame rate : 29.970 fps 
Color space : YUV 
Chroma subsampling : 4:2:0 
Bit depth : 8 bits 
Scan type : Progressive 
Bits/(Pixel*Frame) : 0.121 
Stream size : 9.06 GiB (59%) 
Writing library : x264 core 125 r2208 d9d2288 
Encoding settings : cabac=1 / ref=3 / deblock=1:0:0 / analyse=0x3:0x113 / me=hex / subme=7 / psy=1 / psy_rd=1.00:0.00 / mixed_ref=1 / me_range=16 / chroma_me=1 / trellis=1 / 8x8dct=1 / cqm=0 / deadzone=21,11 / fast_pskip=1 / chroma_qp_offset=-2 / threads=12 / lookahead_threads=2 / sliced_threads=0 / nr=0 / decimate=1 / interlaced=0 / bluray_compat=0 / constrained_intra=0 / bframes=3 / b_pyramid=0 / b_adapt=1 / b_bias=0 / direct=1 / weightb=1 / open_gop=0 / weightp=2 / keyint=300 / keyint_min=30 / scenecut=40 / intra_refresh=0 / rc_lookahead=40 / rc=crf / mbtree=1 / crf=24.0 / qcomp=0.60 / qpmin=0 / qpmax=69 / qpstep=4 / vbv_maxrate=25000 / vbv_bufsize=25000 / crf_max=0.0 / nal_hrd=vbr / ip_ratio=1.40 / aq=1:1.00 

Audio 
ID : 4352 (0x1100) 
Menu ID : 1 (0x1) 
Format : PCM 
Format settings, Endianness : Big 
Format settings, Sign : Signed 
Muxing mode : Blu-ray 
Codec ID : 128 
Duration : 2h 52mn 
Bit rate mode : Constant 
Bit rate : 4 608 Kbps 
Channel(s) : 6 channels 
Channel positions : Front: L C R, Side: L R, LFE 
Sampling rate : 48.0 KHz 
Bit depth : 16 bits 
Stream size : 5.56 GiB (36%) 
Language : English 
